<svg width="328" height="130" viewBox="0 0 328 130" fill="none" xmlns="http://www.w3.org/2000/svg">
<g filter="url(#filter0_d_2_6)">
<path d="M49.5 76V70L58.5 61L55.5 58L49.5 52V46H55.5V49L67.5 61L55.5 73V76H49.5ZM79.5 76V73L67.5 61L79.5 49V46H85.5V52L79.5 58H79.4531L76.5 61L85.5 70V76H79.5ZM97.5 64C95.8125 64 94.3906 63.4219 93.2344 62.2656C92.0781 61.0781 91.5 59.6562 91.5 58H109.5C109.5 59.6875 108.906 61.1094 107.719 62.2656C106.531 63.4219 105.125 64 103.5 64H97.5ZM130.5 76V52H121.5C119.812 52 118.391 51.4219 117.234 50.2656C116.078 49.0781 115.5 47.6562 115.5 46H151.5C151.5 47.6875 150.906 49.1094 149.719 50.2656C148.531 51.4219 147.125 52 145.5 52H136.5V76H130.5ZM157.5 76V58H193.5V76H187.5V64H163.5V76H157.5ZM163.5 52C161.812 52 160.391 51.4219 159.234 50.2656C158.078 49.0781 157.5 47.6562 157.5 46H193.5C193.5 47.6875 192.906 49.1094 191.719 50.2656C190.531 51.4219 189.125 52 187.5 52H163.5ZM199.5 76V58H205.5V70H229.5V58H235.5V76H199.5ZM205.5 52C203.812 52 202.391 51.4219 201.234 50.2656C200.078 49.0781 199.5 47.6562 199.5 46H235.5C235.5 47.6875 234.906 49.1094 233.719 50.2656C232.531 51.4219 231.125 52 229.5 52H205.5ZM247.5 76V52L241.5 46H250.5L271.5 67V46H277.5V76H271.5L253.5 58V76H247.5Z" fill="#F5A561"/>
</g>
<defs>
<filter id="filter0_d_2_6" x="-0.5" y="0" width="328" height="130" filterUnits="userSpaceOnUse" color-interpolation-filters="sRGB">
<feFlood flood-opacity="0" result="BackgroundImageFix"/>
<feColorMatrix in="SourceAlpha" type="matrix" values="0 0 0 0 0 0 0 0 0 0 0 0 0 0 0 0 0 0 127 0" result="hardAlpha"/>
<feOffset dy="4"/>
<feGaussianBlur stdDeviation="25"/>
<feColorMatrix type="matrix" values="0 0 0 0 0.964706 0 0 0 0 0.560784 0 0 0 0 0.498039 0 0 0 1 0"/>
<feBlend mode="normal" in2="BackgroundImageFix" result="effect1_dropShadow_2_6"/>
<feBlend mode="normal" in="SourceGraphic" in2="effect1_dropShadow_2_6" result="shape"/>
</filter>
</defs>
</svg>
